# xmcd CD database file
#
# Track frame offsets:
#	150
#	12332
#	26955
#	43050
#	57257
#	75250
#	89192
#	103667
#	119487
#	135097
#	151505
#
# Disc length: 2219 seconds
#
# Revision: 0
# Processed by: cddbd v1.5.2PL0 Copyright (c) Steve Scherf et al.
# Submitted via: CdAid (MTCDDB.DLL V2003.12.21)
#
DISCID=8308a90b
DTITLE=Carlos Augusto e Clayton - Carlos Augusto e Clayton
DYEAR=1995
DGENRE=Folk
TTITLE0=Menina peralta
TTITLE1=Sou bandido
TTITLE2=Sou louco por você
TTITLE3=Festa e emoção na arena
TTITLE4=Jeitinho gostoso
TTITLE5=Castigo de amor
TTITLE6=Você já passou dos limites
TTITLE7=Sangue novo
TTITLE8=Te amei de verdade
TTITLE9=Aceite meu coração
TTITLE10=Meu mal é mulher
EXTD=ID3G:  80 YEAR: 1995
EXTT0=
EXTT1=
EXTT2=
EXTT3=
EXTT4=
EXTT5=
EXTT6=
EXTT7=
EXTT8=
EXTT9=
EXTT10=
PLAYORDER=
